<svg width="315" height="315" viewBox="0 0 315 315" fill="none" xmlns="http://www.w3.org/2000/svg">
<path d="M158 64C93 115 25.5596 265.448 158 259C291.5 252.5 227 123 158 64Z" fill="#F9F9FF"/>
<path d="M92.1429 192.45C92.1429 207.899 99.0287 222.715 111.286 233.639C123.542 244.563 140.166 250.7 157.5 250.7C174.834 250.7 191.458 244.563 203.714 233.639C215.971 222.715 222.857 207.899 222.857 192.45C222.857 172.342 201.159 133.839 157.5 79.9926C113.841 133.839 92.1429 172.342 92.1429 192.45ZM157.5 41C218.504 111.948 249 162.428 249 192.45C249 214.078 239.36 234.821 222.2 250.115C205.041 265.408 181.767 274 157.5 274C133.233 274 109.959 265.408 92.7997 250.115C75.6401 234.821 66 214.078 66 192.45C66 162.428 96.4956 111.948 157.5 41Z" fill="#7267F9"/>
<path d="M178.783 184.033L173.249 198.79L158.493 204.324L173.249 209.858L178.783 224.614L184.317 209.858L199.074 204.324L184.317 198.79L178.783 184.033Z" fill="#7267F9"/>
</svg>
