<svg width="273" height="299" viewBox="0 0 273 299" fill="none" xmlns="http://www.w3.org/2000/svg">
<circle opacity="0.05" cx="136.763" cy="131.763" r="131.763" fill="#7267F9"/>
<path d="M84.9486 95.8774C79.9875 95.8774 75.2295 93.9252 71.7215 90.4504C68.2134 86.9755 66.2427 82.2626 66.2427 77.3485C66.2427 72.4343 68.2134 67.7214 71.7215 64.2465C75.2295 60.7717 79.9875 58.8195 84.9486 58.8195V58.8195C89.9097 58.8195 94.6677 60.7717 98.1757 64.2465C101.684 67.7214 103.655 72.4343 103.655 77.3485C103.655 82.2626 101.684 86.9755 98.1757 90.4504C94.6677 93.9252 89.9097 95.8774 84.9486 95.8774Z" fill="#7267F9" fill-opacity="0.05"/>
<path d="M75.5561 74.3308C76.0138 74.3351 76.4625 74.2046 76.8452 73.9559C77.2278 73.7071 77.5273 73.3513 77.7054 72.9337C77.8836 72.5161 77.9325 72.0554 77.8458 71.6102C77.7592 71.165 77.541 70.7554 77.2188 70.4333C76.8967 70.1111 76.4853 69.8911 76.0366 69.8011C75.588 69.711 75.1225 69.755 74.6993 69.9275C74.276 70.1 73.914 70.3932 73.6592 70.7699C73.4044 71.1466 73.2684 71.5897 73.2684 72.0431C73.2669 72.6466 73.5068 73.226 73.9355 73.6547C74.3643 74.0835 74.9469 74.3266 75.5561 74.3308V74.3308Z" fill="white"/>
<path d="M99.4921 40.9205L102.053 45.5554L106.738 48.0974L102.053 50.6339L99.4921 55.2688L96.9314 50.6339L92.2467 48.0974L96.9314 45.5554L99.4921 40.9205Z" fill="#F5F5F5"/>
<path d="M206.317 166.599L208.239 170.082L211.75 171.981L208.239 173.884L206.317 177.367L204.395 173.884L200.884 171.981L204.395 170.082L206.317 166.599Z" fill="#7267F9" fill-opacity="0.05"/>
<path d="M211.75 149.422L212.618 150.991L214.201 151.851L212.618 152.711L211.75 154.279L210.887 152.711L209.298 151.851L210.887 150.991L211.75 149.422Z" fill="#7267F9" fill-opacity="0.05"/>
<path d="M81.1957 42.662L82.0638 44.2358L83.6472 45.0903L82.0638 45.9503L81.1957 47.5187L80.333 45.9503L78.7441 45.0903L80.333 44.2358L81.1957 42.662Z" fill="#7267F9" fill-opacity="0.05"/>
<path d="M223.117 246.464C222.981 245.77 222.601 245.147 222.043 244.706C221.486 244.264 220.789 244.033 220.076 244.054C219.363 244.075 218.68 244.346 218.15 244.819C217.62 245.292 217.277 245.937 217.182 246.637C217.083 245.938 216.736 245.296 216.204 244.826C215.672 244.356 214.988 244.089 214.275 244.072C213.562 244.056 212.867 244.29 212.312 244.734C211.758 245.178 211.38 245.803 211.247 246.496C211.105 247.522 211.367 248.562 211.979 249.401C212.585 250.228 213.297 250.973 214.098 251.618C215.19 252.575 216.178 253.468 217.259 254.42C218.351 253.457 219.241 252.554 220.311 251.591C221.108 250.939 221.814 250.186 222.413 249.352C223.011 248.513 223.263 247.48 223.117 246.464V246.464Z" fill="#7267F9" fill-opacity="0.05"/>
<path d="M235.703 132.462L237.772 132.056L241.048 124.928L240.229 120.834C240.229 120.834 243.39 120.012 244.089 125.447C244.788 130.883 244.919 129.439 244.919 129.439C244.919 129.439 251.717 128.13 252.399 128.6C252.896 128.946 254.42 135.599 255.217 139.211C255.437 140.077 255.359 140.992 254.994 141.808C254.628 142.625 253.998 143.297 253.202 143.717C252.975 143.827 252.735 143.907 252.487 143.955C250.794 144.29 241.862 144.625 241.862 144.625L238.285 145.328L235.703 132.462Z" fill="#7267F9" fill-opacity="0.05"/>
<path d="M229.549 132.5L233.628 146.28L237.177 145.582L234.425 131.84L229.549 132.5Z" fill="#7267F9" fill-opacity="0.05"/>
<path d="M256.877 281.824C256.877 281.905 202.73 281.964 135.954 281.964C69.1782 281.964 15.015 281.905 15.015 281.824C15.015 281.743 69.1509 281.683 135.954 281.683C202.757 281.683 256.877 281.748 256.877 281.824Z" fill="#7267F9" fill-opacity="0.05"/>
<path opacity="0.6" d="M214.813 127.054C209.521 129.601 203.425 129.963 197.864 128.059C192.304 126.156 187.734 122.142 185.16 116.902V116.902C182.587 111.661 182.222 105.622 184.144 100.114C186.066 94.6059 190.117 90.0793 195.408 87.5295V87.5295C198.028 86.2673 200.873 85.5286 203.781 85.3557C206.69 85.1827 209.604 85.5789 212.357 86.5215C215.111 87.4642 217.65 88.9349 219.83 90.8496C222.01 92.7644 223.787 95.0856 225.061 97.6809V97.6809C226.336 100.276 227.081 103.094 227.256 105.975C227.43 108.856 227.03 111.742 226.079 114.47C225.127 117.197 223.642 119.712 221.709 121.872C219.776 124.031 217.433 125.792 214.813 127.054V127.054Z" fill="#7267F9"/>
<path d="M236.964 189.038C235.086 188.329 233.368 187.26 231.908 185.892C230.448 184.525 229.274 182.885 228.454 181.068C227.634 179.25 227.184 177.291 227.129 175.301C227.074 173.311 227.416 171.33 228.135 169.471V169.471C228.851 167.611 229.929 165.909 231.31 164.463C232.69 163.016 234.344 161.853 236.178 161.04C238.012 160.228 239.99 159.781 241.999 159.726C244.008 159.671 246.007 160.009 247.884 160.72V160.72C249.762 161.43 251.48 162.499 252.94 163.866C254.4 165.234 255.574 166.873 256.394 168.691C257.214 170.508 257.664 172.468 257.719 174.458C257.774 176.448 257.432 178.429 256.713 180.288V180.288C255.997 182.148 254.919 183.849 253.538 185.296C252.158 186.743 250.504 187.905 248.67 188.718C246.836 189.531 244.858 189.978 242.849 190.032C240.84 190.087 238.841 189.75 236.964 189.038V189.038Z" fill="#7267F9"/>
<path d="M42.782 130.649C39.6874 130.649 36.7196 129.432 34.5315 127.264C32.3433 125.097 31.114 122.157 31.114 119.092V119.092C31.114 116.027 32.3433 113.087 34.5315 110.919C36.7196 108.752 39.6874 107.534 42.782 107.534V107.534C44.3143 107.534 45.8315 107.833 47.2471 108.414C48.6628 108.995 49.9491 109.846 51.0325 110.919C52.116 111.993 52.9755 113.267 53.5618 114.669C54.1482 116.071 54.45 117.574 54.45 119.092V119.092C54.45 120.61 54.1482 122.113 53.5618 123.515C52.9755 124.917 52.116 126.191 51.0325 127.264C49.9491 128.338 48.6628 129.189 47.2471 129.77C45.8315 130.35 44.3143 130.649 42.782 130.649Z" fill="#7267F9"/>
<path d="M53.1919 215.9C52.5334 215.9 51.8813 215.772 51.2728 215.522C50.6643 215.272 50.1114 214.906 49.6456 214.445C49.1799 213.983 48.8104 213.435 48.5583 212.832C48.3062 212.228 48.1765 211.582 48.1765 210.929C48.1765 210.276 48.3062 209.629 48.5583 209.026C48.8104 208.423 49.1799 207.874 49.6456 207.413C50.1114 206.951 50.6643 206.585 51.2728 206.335C51.8813 206.086 52.5334 205.958 53.1919 205.958V205.958C53.8509 205.957 54.5037 206.084 55.1128 206.334C55.722 206.583 56.2756 206.949 56.742 207.411C57.2084 207.872 57.5784 208.421 57.8308 209.024C58.0833 209.628 58.2132 210.275 58.2132 210.929C58.2132 211.582 58.0833 212.229 57.8308 212.833C57.5784 213.437 57.2084 213.985 56.742 214.447C56.2756 214.909 55.722 215.274 55.1128 215.524C54.5037 215.773 53.8509 215.901 53.1919 215.9V215.9Z" fill="#7267F9" fill-opacity="0.05"/>
<path d="M180.995 282.218L105.707 282.191C101.363 282.191 97.1966 280.482 94.1248 277.439C91.053 274.396 89.3272 270.27 89.3272 265.966L89.36 79.0113C89.36 76.8779 89.7847 74.7654 90.6099 72.7948C91.4352 70.8242 92.6446 69.0341 94.1691 67.527C95.6936 66.02 97.5032 64.8255 99.4943 64.0121C101.485 63.1986 103.619 62.7821 105.773 62.7863L181.055 62.8296C185.399 62.8296 189.566 64.539 192.638 67.5818C195.709 70.6246 197.435 74.7515 197.435 79.0546L197.402 265.966C197.406 268.102 196.984 270.217 196.161 272.19C195.338 274.163 194.129 275.956 192.605 277.466C191.081 278.976 189.27 280.173 187.278 280.989C185.286 281.804 183.151 282.222 180.995 282.218V282.218Z" fill="#353140"/>
<path d="M180.973 69.3845H166.373C165.415 69.4072 164.505 69.8043 163.841 70.4892C163.177 71.1741 162.814 72.0912 162.83 73.0405V75.6636C162.841 76.1349 162.758 76.6038 162.585 77.0433C162.413 77.4828 162.155 77.8844 161.826 78.225C161.497 78.5656 161.103 78.8385 160.667 79.0282C160.231 79.2179 159.762 79.3206 159.286 79.3304H130.834C130.358 79.3199 129.889 79.2165 129.453 79.0263C129.017 78.836 128.623 78.5625 128.294 78.2215C127.965 77.8805 127.707 77.4786 127.535 77.0388C127.363 76.5989 127.28 76.1298 127.291 75.6582V73.0189C127.31 72.0672 126.948 71.1468 126.284 70.4587C125.62 69.7705 124.708 69.3708 123.747 69.3467H118.604H105.833C104.325 69.3431 102.831 69.6342 101.437 70.2034C100.042 70.7726 98.7751 71.6086 97.7074 72.6636C96.6398 73.7186 95.7928 74.9718 95.2149 76.3516C94.637 77.7313 94.3395 79.2104 94.3395 80.7041L94.3013 263.187C94.3013 266.199 95.5093 269.088 97.6596 271.218C99.8099 273.347 102.726 274.544 105.767 274.544L180.908 274.587C182.414 274.587 183.905 274.294 185.296 273.723C186.687 273.152 187.951 272.315 189.015 271.261C190.08 270.206 190.925 268.954 191.501 267.576C192.077 266.198 192.374 264.721 192.374 263.23L192.412 80.742C192.412 77.7345 191.208 74.8498 189.063 72.7206C186.919 70.5914 184.01 69.3917 180.973 69.3845Z" fill="white"/>
<path d="M182.071 84.2088C182.071 84.2574 180.171 84.3115 177.834 84.3278C175.497 84.344 173.591 84.3277 173.591 84.2791C173.591 84.2304 175.486 84.1709 177.828 84.1547C180.171 84.1385 182.071 84.1601 182.071 84.2088Z" fill="#353140"/>
<path d="M182.087 86.3559C182.087 86.4045 180.193 86.4586 177.85 86.4803C175.508 86.5019 173.608 86.4803 173.608 86.4262C173.608 86.3721 175.508 86.3234 177.85 86.3018C180.193 86.2802 182.087 86.3072 182.087 86.3559Z" fill="#353140"/>
<path d="M182.109 88.503C182.109 88.5516 180.209 88.6111 177.867 88.6274C175.524 88.6436 173.63 88.6274 173.624 88.5733C173.619 88.5192 175.524 88.4705 177.867 88.4489C180.209 88.4273 182.109 88.4543 182.109 88.503Z" fill="#353140"/>
<path d="M140.52 263.419C140.515 263.726 140.418 264.025 140.241 264.278C140.065 264.531 139.817 264.726 139.528 264.84C139.24 264.953 138.924 264.979 138.62 264.915C138.317 264.851 138.039 264.7 137.823 264.48C137.606 264.26 137.46 263.982 137.402 263.679C137.345 263.377 137.379 263.065 137.501 262.782C137.622 262.5 137.826 262.259 138.085 262.09C138.344 261.921 138.648 261.832 138.959 261.834C139.166 261.837 139.372 261.879 139.562 261.96C139.753 262.041 139.926 262.158 140.072 262.306C140.217 262.453 140.331 262.627 140.408 262.818C140.485 263.009 140.523 263.213 140.52 263.419V263.419Z" fill="#353140"/>
<path d="M145.358 263.441C145.351 263.746 145.254 264.044 145.077 264.295C144.901 264.546 144.654 264.74 144.367 264.852C144.08 264.964 143.765 264.99 143.463 264.926C143.161 264.862 142.885 264.711 142.67 264.492C142.454 264.274 142.308 263.997 142.251 263.696C142.194 263.395 142.228 263.085 142.348 262.803C142.468 262.522 142.67 262.281 142.928 262.113C143.185 261.944 143.487 261.855 143.796 261.856C144.004 261.857 144.21 261.9 144.401 261.98C144.592 262.061 144.766 262.178 144.911 262.326C145.056 262.473 145.17 262.647 145.247 262.839C145.324 263.03 145.361 263.235 145.358 263.441V263.441Z" fill="#353140"/>
<path d="M150.234 263.462C150.227 263.768 150.13 264.065 149.953 264.316C149.777 264.567 149.53 264.761 149.243 264.874C148.955 264.986 148.641 265.012 148.339 264.948C148.037 264.884 147.761 264.733 147.545 264.514C147.33 264.295 147.184 264.018 147.127 263.718C147.07 263.417 147.103 263.107 147.224 262.825C147.344 262.543 147.546 262.303 147.803 262.135C148.061 261.966 148.363 261.877 148.672 261.878C148.88 261.88 149.085 261.923 149.276 262.003C149.467 262.084 149.64 262.202 149.785 262.349C149.93 262.496 150.044 262.67 150.121 262.861C150.198 263.052 150.236 263.257 150.234 263.462V263.462Z" fill="#353140"/>
<path d="M222.02 54.9551L222.637 56.0746L223.762 56.6858L222.637 57.2969L222.02 58.411L221.403 57.2969L220.278 56.6858L221.403 56.0746L222.02 54.9551Z" fill="#7267F9"/>
<path d="M234.911 82.6295L235.528 83.749L236.653 84.3602L235.528 84.9713L234.911 86.0854L234.294 84.9713L233.164 84.3602L234.294 83.749L234.911 82.6295Z" fill="#7267F9"/>
<path d="M43.8962 147.301L44.5131 148.421L45.6434 149.032L44.5131 149.638L43.8962 150.757L43.2792 149.638L42.1544 149.032L43.2792 148.421L43.8962 147.301Z" fill="#7267F9"/>
<path d="M205.11 61.8345L206.535 64.4143L209.14 65.8259L206.535 67.232L205.11 69.8118L203.691 67.232L201.086 65.8259L203.691 64.4143L205.11 61.8345Z" fill="#7267F9"/>
<path d="M62.2318 163.208L63.6514 165.777L66.2504 167.183L63.6514 168.595L62.2318 171.164L60.8122 168.595L58.2132 167.183L60.8122 165.777L62.2318 163.208Z" fill="#7267F9"/>
<path d="M228.842 207.946L230.262 210.521L232.855 211.927L230.262 213.333L228.842 215.907L227.422 213.333L224.824 211.927L227.422 210.521L228.842 207.946Z" fill="#7267F9"/>
<g opacity="0.1">
<path d="M143.5 117.377C166.538 144.147 178.054 163.194 178.054 174.522C178.054 178.562 177.16 182.564 175.424 186.297C173.687 190.03 171.142 193.422 167.933 196.279C164.725 199.137 160.915 201.403 156.723 202.95C152.531 204.496 148.038 205.292 143.5 205.292C138.962 205.292 134.469 204.496 130.277 202.95C126.085 201.403 122.275 199.137 119.067 196.279C115.858 193.422 113.313 190.03 111.576 186.297C109.84 182.564 108.946 178.562 108.946 174.522C108.946 163.194 120.462 144.147 143.5 117.377V117.377Z" fill="#7267F9"/>
</g>
<path d="M143.185 144.908C132.001 153.599 120.398 179.24 143.185 178.141C166.155 177.034 155.057 154.963 143.185 144.908Z" fill="#F9F9FF"/>
<path d="M131.854 166.799C131.854 169.432 133.039 171.957 135.148 173.819C137.257 175.681 140.117 176.727 143.099 176.727C146.082 176.727 148.942 175.681 151.051 173.819C153.16 171.957 154.345 169.432 154.345 166.799C154.345 163.372 150.611 156.81 143.099 147.633C135.587 156.81 131.854 163.372 131.854 166.799ZM143.099 140.988C153.596 153.079 158.843 161.683 158.843 166.799C158.843 170.486 157.184 174.021 154.232 176.627C151.279 179.234 147.275 180.698 143.099 180.698C138.924 180.698 134.919 179.234 131.967 176.627C129.015 174.021 127.356 170.486 127.356 166.799C127.356 161.683 132.603 153.079 143.099 140.988Z" fill="url(#paint0_linear)"/>
<g clip-path="url(#clip0)">
<path d="M146.761 165.365L145.809 167.88L143.27 168.823L145.809 169.766L146.761 172.281L147.713 169.766L150.252 168.823L147.713 167.88L146.761 165.365Z" fill="url(#paint1_linear)"/>
</g>
<defs>
<linearGradient id="paint0_linear" x1="127.356" y1="160.843" x2="158.843" y2="160.843" gradientUnits="userSpaceOnUse">
<stop stop-color="#393FDB"/>
<stop offset="1" stop-color="#707EFF"/>
</linearGradient>
<linearGradient id="paint1_linear" x1="143.27" y1="168.823" x2="150.252" y2="168.823" gradientUnits="userSpaceOnUse">
<stop stop-color="#393FDB"/>
<stop offset="1" stop-color="#707EFF"/>
</linearGradient>
<clipPath id="clip0">
<rect width="7.61709" height="7.54501" fill="white" transform="translate(142.953 165.051)"/>
</clipPath>
</defs>
</svg>
