<svg width="268" height="250" viewBox="0 0 268 250" fill="none" xmlns="http://www.w3.org/2000/svg">
<g opacity="0.1">
<g clip-path="url(#clip0)">
<path d="M140.743 192.072H106.416C102.861 192.072 99.9793 194.954 99.9793 198.509C99.9793 202.063 102.861 204.945 106.416 204.945H140.743C144.298 204.945 147.18 202.063 147.18 198.509C147.18 194.954 144.298 192.072 140.743 192.072Z" fill="url(#paint0_linear)"/>
<path d="M106.416 177.483H130.445C134 177.483 136.882 174.601 136.882 171.046C136.882 167.492 134 164.61 130.445 164.61H106.416C102.861 164.61 99.9793 167.492 99.9793 171.046C99.9793 174.601 102.861 177.483 106.416 177.483Z" fill="url(#paint1_linear)"/>
<path d="M219.697 98.9584C219.697 70.8024 196.791 47.896 168.635 47.896C146.338 47.896 127.336 62.2621 120.392 82.2236H19.3093C8.66215 82.2236 0 90.8858 0 101.533V213.098C0 223.745 8.66215 232.407 19.3093 232.407H179.362C190.009 232.407 198.671 223.745 198.671 213.098V140.225C211.406 130.93 219.697 115.896 219.697 98.9584ZM168.635 60.7688C189.692 60.7688 206.824 77.9005 206.824 98.9584C206.824 120.016 189.692 137.148 168.635 137.148C147.577 137.148 130.445 120.016 130.445 98.9584C130.445 77.9005 147.577 60.7688 168.635 60.7688ZM185.798 213.098C185.798 216.647 182.911 219.534 179.362 219.534H19.3093C15.7603 219.534 12.8729 216.647 12.8729 213.098V101.533C12.8729 97.9839 15.7603 95.0965 19.3093 95.0965H117.718C117.622 96.3718 117.572 97.6595 117.572 98.9584C117.572 127.114 140.479 150.021 168.635 150.021C174.654 150.021 180.432 148.971 185.798 147.05V213.098Z" fill="url(#paint2_linear)"/>
<path d="M156.012 112.135C156.983 114.078 158.869 115.4 161.027 115.65C161.275 115.678 161.523 115.693 161.769 115.693C163.667 115.693 165.483 114.854 166.714 113.377L183.877 92.7807C186.153 90.0499 185.784 85.9915 183.053 83.7156C180.323 81.4401 176.264 81.8091 173.988 84.5399L163.125 97.5762L160.66 92.6476C159.07 89.468 155.204 88.1786 152.025 89.7693C148.845 91.3586 147.557 95.2252 149.146 98.4044L156.012 112.135Z" fill="url(#paint3_linear)"/>
<path d="M71.6967 160.168C75.9147 155.902 78.5245 150.043 78.5245 143.584C78.5245 130.571 67.9374 119.984 54.9242 119.984C41.9111 119.984 31.324 130.571 31.324 143.584C31.324 150.043 33.9337 155.902 38.1518 160.168C31.9076 165.124 27.8912 172.772 27.8912 181.345V198.509C27.8912 202.063 30.773 204.945 34.3277 204.945H75.5208C79.0755 204.945 81.9573 202.063 81.9573 198.509V181.345C81.9573 172.772 77.9409 165.124 71.6967 160.168ZM44.1969 143.584C44.1969 137.669 49.0092 132.857 54.9242 132.857C60.8393 132.857 65.6516 137.669 65.6516 143.584C65.6516 149.499 60.8393 154.312 54.9242 154.312C49.0092 154.312 44.1969 149.499 44.1969 143.584ZM69.0844 192.072H40.7641V181.345C40.7641 173.537 47.1164 167.185 54.9242 167.185C62.7321 167.185 69.0844 173.537 69.0844 181.345V192.072Z" fill="url(#paint4_linear)"/>
</g>
<circle opacity="0.05" cx="166.667" cy="101.01" r="101.01" fill="#7267F9"/>
</g>
<defs>
<linearGradient id="paint0_linear" x1="99.9793" y1="198.509" x2="147.18" y2="198.509" gradientUnits="userSpaceOnUse">
<stop stop-color="#393FDB"/>
<stop offset="1" stop-color="#707EFF"/>
</linearGradient>
<linearGradient id="paint1_linear" x1="99.9793" y1="171.046" x2="136.882" y2="171.046" gradientUnits="userSpaceOnUse">
<stop stop-color="#393FDB"/>
<stop offset="1" stop-color="#707EFF"/>
</linearGradient>
<linearGradient id="paint2_linear" x1="-1.63687e-06" y1="140.152" x2="219.697" y2="140.152" gradientUnits="userSpaceOnUse">
<stop stop-color="#393FDB"/>
<stop offset="1" stop-color="#707EFF"/>
</linearGradient>
<linearGradient id="paint3_linear" x1="148.465" y1="98.9584" x2="185.369" y2="98.9584" gradientUnits="userSpaceOnUse">
<stop stop-color="#393FDB"/>
<stop offset="1" stop-color="#707EFF"/>
</linearGradient>
<linearGradient id="paint4_linear" x1="27.8912" y1="162.464" x2="81.9573" y2="162.464" gradientUnits="userSpaceOnUse">
<stop stop-color="#393FDB"/>
<stop offset="1" stop-color="#707EFF"/>
</linearGradient>
<clipPath id="clip0">
<rect width="219.697" height="219.697" fill="white" transform="translate(0 30.303)"/>
</clipPath>
</defs>
</svg>
